[common]
hls_frag_secs_length=3
hls_number_fragments=2

# Bonjour,
#
# Nous avons constaté de le transcoder accepte mal certains flux au Danemark et à Singapour.
# Vous allez recevoir des liens Google Drive qui vous permettront de télécharger des dumps des extrais de  flux :
#
 
[test4]
input=/home/firefox/BBC-HD.ts
# input=/home/firefox/DR3.ts    # test 1 --> This one "Works" but the sound and picture is stuttering/freezing
# input=/home/firefox/DR2.ts    # test 2 --> This one "Works" but the sound and picture is stuttering/freezing : 50.20 fps
# input=/home/firefox/BBC-HD.ts # test 3 --> This one is "Black screen" and millions of errors in syslog (stream is fine on STB/vlc)
# input=/home/firefox/DC-HD.ts  # test 4 --> This one is "Black screen" and millions of errors in syslog (stream is fine on STB/vlc)
width=240
height=160
video_bitrate=410
audio_bitrate=192
port=test4
baseurl=http://192.168.1.12/



# ffmpeg version 0.8.6-4:0.8.6-0ubuntu0.12.04.1, Copyright (c) 2000-2013 the Libav developers
# [h264 @ 0x822b660] number of reference frames (0+7) exceeds max (5; probably corrupt input), discarding one
# Input #0, mpegts, from '/home/firefox/DR3.ts':
#   Duration: 02:00:32.68, start: 24085.100456, bitrate: 594 kb/s
#   Program 2030 
#     Stream #0.0[0x5a]: Data: [5][0][0][0] / 0x0005
#     Stream #0.1[0x5b]: Data: [11][0][0][0] / 0x000B
#     Stream #0.2[0x7ef](dan): Subtitle: [6][0][0][0] / 0x0006
#     Stream #0.3[0x907]: Video: h264 (High), yuv420p, 1280x720 [PAR 1:1 DAR 16:9], 53.26 fps, 50 tbr, 90k tbn, 100 tbc
#     Stream #0.4[0x911](dan): Audio: aac_latm, 48000 Hz, stereo, s16
#     Stream #0.5[0x915](dan): Audio: aac_latm, 48000 Hz, 5.1, s16
#     Stream #0.6[0x91f](dan): Subtitle: dvbsub
#     Stream #0.7[0x920](dan): Subtitle: dvbsub (hearing impaired)
# #================================================================================ 
# #================================================================================ 
# #================================================================================ 
# Seems stream 2 codec frame rate differs from container frame rate: 50.00 (50/1) -> 50.00 (50/1)
# Input #0, mpegts, from '/home/firefox/DR2.ts':
#   Duration: 00:10:01.48, start: 43566.932089, bitrate: 2585 kb/s
#   Program 102 
#     Stream #0.0[0x5a]: Data: [5][0][0][0] / 0x0005
#     Stream #0.1[0x5b]: Data: [11][0][0][0] / 0x000B
#     Stream #0.2[0xd3]: Video: h264 (High), yuv420p, 704x576 [PAR 16:11 DAR 16:9], 50.20 fps, 50 tbr, 90k tbn, 50 tbc
#     Stream #0.3[0xdd](dan): Audio: aac_latm, 48000 Hz, stereo, s16
#     Stream #0.4[0xe7](dan): Subtitle: [6][0][0][0] / 0x0006
#     Stream #0.5[0xeb](dan): Subtitle: dvbsub
#     Stream #0.6[0xec](dan): Subtitle: dvbsub (hearing impaired)
# #================================================================================ 
# #================================================================================ 
# #================================================================================ 
# Seems stream 0 codec frame rate differs from container frame rate: 50.00 (50/1) -> 50.00 (50/1)
# Input #0, mpegts, from '/home/firefox/BBC-HD.ts':
#   Duration: 00:03:29.97, start: 6664.199400, bitrate: 12275 kb/s
#   Program 4104 
#     Stream #0.0[0x204]: Video: h264 (Main), yuv420p, 1920x1080 [PAR 1:1 DAR 16:9], 54.61 fps, 50 tbr, 90k tbn, 50 tbc
#     Stream #0.1[0x290](eng): Audio: ac3, 48000 Hz, 5.1, s16, 448 kb/s
#     Stream #0.2[0x291](pol): Audio: ac3, 48000 Hz, stereo, s16, 192 kb/s
#     Stream #0.3[0x25e](swe): Subtitle: dvbsub
#     Stream #0.4[0x25f](nor): Subtitle: dvbsub
#     Stream #0.5[0x260](dan): Subtitle: dvbsub
#     Stream #0.6[0x261](tur): Subtitle: dvbsub
# #================================================================================ 
# #================================================================================ 
# #================================================================================ 
# Seems stream 0 codec frame rate differs from container frame rate: 50.00 (50/1) -> 50.00 (50/1)
# Input #0, mpegts, from '/home/firefox/DC-HD.ts':
#   Duration: 00:10:01.48, start: 33475.210378, bitrate: 12951 kb/s
#   Program 4102 
#     Stream #0.0[0x201]: Video: h264 (High), yuv420p, 1920x1080 [PAR 1:1 DAR 16:9], 51.32 fps, 50 tbr, 90k tbn, 50 tbc
#     Stream #0.1[0x284](eng): Audio: ac3, 48000 Hz, 5.1, s16, 384 kb/s
#     Stream #0.2[0x259](swe): Subtitle: dvbsub
#     Stream #0.3[0x25a](nor): Subtitle: dvbsub
#     Stream #0.4[0x25b](dan): Subtitle: dvbsub
#     Stream #0.5[0x25d](fin): Subtitle: dvbsub
#     Stream #0.6[0x25c](rum): Subtitle: dvbsub
#     Stream #0.7[0x285](hun): Audio: ac3, 48000 Hz, 5.1, s16, 384 kb/s
#     Stream #0.8[0x286](cze): Audio: ac3, 48000 Hz, 5.1, s16, 384 kb/s
